<svg version="1.1" preserveAspectRatio="none" xmlns="http://www.w3.org/2000/svg" width="500" height="500" viewBox="0 0 500 500"><rect width="100%" height="100%" fill="#121212" fill-opacity="1"/><svg viewBox="663.219 900.7471 387.2797 343.6399" width="333" height="295.47659404817756" x="83.5px" y="102.2617px" xmlns="http://www.w3.org/2000/svg" xmlns:xlink="http://www.w3.org/1999/xlink" preserveAspectRatio="none"><defs></defs><style>.companyName {fill:#E3E3E3;fill-opacity:1;}.icon1 {fill:#F1EC40;fill-opacity:1;}.icon2 {fill:#555555;fill-opacity:1;}.icon3 {fill:#AAAAAA;fill-opacity:1;}.icon3-str {stroke:#AAAAAA;stroke-opacity:1;}</style><g opacity="1" transform="rotate(0 663.219 1124.387)">
<svg width="387.2797" height="120" x="663.219" y="1124.387" version="1.1" preserveAspectRatio="none" viewBox="2.5781 -28.0078 90.39059999999999 28.0078">
  <g transform="matrix(1 0 0 1 0 0)" class="companyName"><path id="id-D6z1nYkh3" d="M30.59-14.00L30.59-2.56Q30.59-2.01 30.39-1.54Q30.20-1.07 29.85-0.73Q29.51-0.39 29.04-0.20Q28.57 0 28.03 0L28.03 0L9.71 0Q9.00 0 8.19-0.17Q7.38-0.33 6.59-0.68Q5.80-1.04 5.08-1.59Q4.36-2.15 3.80-2.94Q3.24-3.73 2.91-4.78Q2.58-5.82 2.58-7.13L2.58-7.13L2.58-20.88Q2.58-21.58 2.74-22.39Q2.91-23.20 3.26-23.99Q3.61-24.79 4.18-25.51Q4.75-26.23 5.54-26.79Q6.33-27.34 7.36-27.68Q8.40-28.01 9.71-28.01L9.71-28.01L30.35-28.01L30.35-22.93L9.71-22.93Q8.71-22.93 8.18-22.40Q7.66-21.88 7.66-20.84L7.66-20.84L7.66-7.13Q7.66-6.15 8.19-5.62Q8.73-5.08 9.71-5.08L9.71-5.08L25.51-5.08L25.51-11.45L11.99-11.45L11.99-16.56L28.03-16.56Q28.57-16.56 29.04-16.36Q29.51-16.15 29.85-15.80Q30.20-15.45 30.39-14.99Q30.59-14.53 30.59-14.00L30.59-14.00Z M61.60-5.08L61.60 0L38.44 0Q37.89 0 37.42-0.20Q36.95-0.39 36.61-0.73Q36.27-1.07 36.07-1.54Q35.88-2.01 35.88-2.56L35.88-2.56L35.88-28.01L40.96-28.01L40.96-5.08L61.60-5.08Z M92.97-14.00L92.97-2.56Q92.97-2.01 92.77-1.54Q92.58-1.07 92.24-0.73Q91.89-0.39 91.43-0.20Q90.96 0 90.41 0L90.41 0L72.09 0Q71.39 0 70.58-0.17Q69.77-0.33 68.97-0.68Q68.18-1.04 67.46-1.59Q66.74-2.15 66.18-2.94Q65.63-3.73 65.29-4.78Q64.96-5.82 64.96-7.13L64.96-7.13L64.96-20.88Q64.96-21.58 65.13-22.39Q65.29-23.20 65.64-23.99Q66.00-24.79 66.56-25.51Q67.13-26.23 67.92-26.79Q68.71-27.34 69.75-27.68Q70.78-28.01 72.09-28.01L72.09-28.01L92.73-28.01L92.73-22.93L72.09-22.93Q71.09-22.93 70.57-22.40Q70.04-21.88 70.04-20.84L70.04-20.84L70.04-7.13Q70.04-6.15 70.58-5.62Q71.11-5.08 72.09-5.08L72.09-5.08L87.89-5.08L87.89-11.45L74.38-11.45L74.38-16.56L90.41-16.56Q90.96-16.56 91.43-16.36Q91.89-16.15 92.24-15.80Q92.58-15.45 92.77-14.99Q92.97-14.53 92.97-14.00L92.97-14.00Z"/></g>
</svg>
</g><g opacity="1" transform="rotate(0 760.039 900.7471)">
<svg width="193.6398" height="193.6399" x="760.039" y="900.7471" version="1.1" preserveAspectRatio="none" viewBox="5 5 90 90">
  <g transform="matrix(1 0 0 1 0 0)" class="icon1"><path d="M95,28.9v29.4l-19.7,10V38.8l-5.6-2.8v35.7L50,81.6v-57l-19.7-9.8L50,5l19.7,9.8v7l5.6-2.8L95,28.9z M5,38.8  l19.7,9.8V95l19.7-10V38.8l-19.7-9.8L5,38.8z"></path></g>
</svg>
</g></svg></svg>